<svg id="visual" viewBox="0 0 900 600" width="900" height="600" xmlns="http://www.w3.org/2000/svg" xmlns:xlink="http://www.w3.org/1999/xlink" version="1.1"><rect x="0" y="0" width="900" height="600" fill="#d5d5d5"></rect><defs><linearGradient id="grad1_0" x1="33.3%" y1="0%" x2="100%" y2="100%"><stop offset="20%" stop-color="#d5d5d5" stop-opacity="1"></stop><stop offset="80%" stop-color="#d5d5d5" stop-opacity="1"></stop></linearGradient></defs><defs><linearGradient id="grad2_0" x1="0%" y1="0%" x2="66.7%" y2="100%"><stop offset="20%" stop-color="#d5d5d5" stop-opacity="1"></stop><stop offset="80%" stop-color="#d5d5d5" stop-opacity="1"></stop></linearGradient></defs><g transform="translate(900, 0)"><path d="M0 297.5C-41.8 296.7 -83.6 296 -113.8 274.8C-144.1 253.6 -162.7 212 -179.6 179.6C-196.5 147.2 -211.6 124.1 -231 95.7C-250.3 67.3 -273.9 33.6 -297.5 0L0 0Z" fill="#FBAE3C"></path></g><g transform="translate(0, 600)"><path d="M0 -297.5C33.8 -279.8 67.6 -262.2 103.3 -249.4C139.1 -236.7 176.7 -228.7 207.2 -207.2C237.7 -185.7 261 -150.6 274.8 -113.8C288.7 -77 293.1 -38.5 297.5 0L0 0Z" fill="#FBAE3C"></path></g></svg>