<svg id="visual" viewBox="0 0 900 600" width="900" height="600" xmlns="http://www.w3.org/2000/svg" xmlns:xlink="http://www.w3.org/1999/xlink" version="1.1"><rect x="0" y="0" width="900" height="600" fill="#d5d5d5"></rect><defs><linearGradient id="grad1_0" x1="33.3%" y1="100%" x2="100%" y2="0%"><stop offset="20%" stop-color="#d5d5d5" stop-opacity="1"></stop><stop offset="80%" stop-color="#d5d5d5" stop-opacity="1"></stop></linearGradient></defs><defs><linearGradient id="grad2_0" x1="0%" y1="100%" x2="66.7%" y2="0%"><stop offset="20%" stop-color="#d5d5d5" stop-opacity="1"></stop><stop offset="80%" stop-color="#d5d5d5" stop-opacity="1"></stop></linearGradient></defs><g transform="translate(900, 600)"><path d="M-297.5 0C-296.7 -41.8 -296 -83.6 -274.8 -113.8C-253.6 -144.1 -212 -162.7 -179.6 -179.6C-147.2 -196.5 -124.1 -211.6 -95.7 -231C-67.3 -250.3 -33.6 -273.9 0 -297.5L0 0Z" fill="#FBAE3C"></path></g><g transform="translate(0, 0)"><path d="M297.5 0C279.8 33.8 262.2 67.6 249.4 103.3C236.7 139.1 228.7 176.7 207.2 207.2C185.7 237.7 150.6 261 113.8 274.8C77 288.7 38.5 293.1 0 297.5L0 0Z" fill="#FBAE3C"></path></g></svg>