<svg id="visual" viewBox="0 0 1920 1080" width="1920" height="1080" xmlns="http://www.w3.org/2000/svg" xmlns:xlink="http://www.w3.org/1999/xlink" version="1.1"><rect x="0" y="0" width="1920" height="1080" fill="#d5d5d5"></rect><defs><linearGradient id="grad1_0" x1="43.8%" y1="100%" x2="100%" y2="0%"><stop offset="14.444444444444446%" stop-color="#d5d5d5" stop-opacity="1"></stop><stop offset="85.55555555555554%" stop-color="#d5d5d5" stop-opacity="1"></stop></linearGradient></defs><defs><linearGradient id="grad2_0" x1="0%" y1="100%" x2="56.3%" y2="0%"><stop offset="14.444444444444446%" stop-color="#d5d5d5" stop-opacity="1"></stop><stop offset="85.55555555555554%" stop-color="#d5d5d5" stop-opacity="1"></stop></linearGradient></defs><g transform="translate(1920, 1080)"><path d="M-594 0C-592.4 -83.7 -590.9 -167.5 -548.8 -227.3C-506.7 -287.1 -424.1 -323 -361.3 -361.3C-298.5 -399.6 -255.5 -440.3 -198.6 -479.5C-141.7 -518.7 -70.8 -556.3 0 -594L0 0Z" fill="#FBAE3C"></path></g><g transform="translate(0, 0)"><path d="M594 0C570.4 75.6 546.7 151.2 509.1 210.9C471.4 270.5 419.7 314.3 374.1 374.1C328.4 433.8 288.7 509.5 227.3 548.8C166 588.1 83 591 0 594L0 0Z" fill="#FBAE3C"></path></g></svg>