<svg id="visual" viewBox="0 0 1920 1080" width="1920" height="1080" xmlns="http://www.w3.org/2000/svg" xmlns:xlink="http://www.w3.org/1999/xlink" version="1.1"><rect x="0" y="0" width="1920" height="1080" fill="#d5d5d5"></rect><defs><linearGradient id="grad1_0" x1="43.8%" y1="100%" x2="100%" y2="0%"><stop offset="14.444444444444446%" stop-color="#00376e" stop-opacity="1"></stop><stop offset="85.55555555555554%" stop-color="#00376e" stop-opacity="1"></stop></linearGradient></defs><defs><linearGradient id="grad1_1" x1="43.8%" y1="100%" x2="100%" y2="0%"><stop offset="14.444444444444446%" stop-color="#00376e" stop-opacity="1"></stop><stop offset="85.55555555555554%" stop-color="#7781a1" stop-opacity="1"></stop></linearGradient></defs><defs><linearGradient id="grad1_2" x1="43.8%" y1="100%" x2="100%" y2="0%"><stop offset="14.444444444444446%" stop-color="#d5d5d5" stop-opacity="1"></stop><stop offset="85.55555555555554%" stop-color="#7781a1" stop-opacity="1"></stop></linearGradient></defs><defs><linearGradient id="grad2_0" x1="0%" y1="100%" x2="56.3%" y2="0%"><stop offset="14.444444444444446%" stop-color="#00376e" stop-opacity="1"></stop><stop offset="85.55555555555554%" stop-color="#00376e" stop-opacity="1"></stop></linearGradient></defs><defs><linearGradient id="grad2_1" x1="0%" y1="100%" x2="56.3%" y2="0%"><stop offset="14.444444444444446%" stop-color="#7781a1" stop-opacity="1"></stop><stop offset="85.55555555555554%" stop-color="#00376e" stop-opacity="1"></stop></linearGradient></defs><defs><linearGradient id="grad2_2" x1="0%" y1="100%" x2="56.3%" y2="0%"><stop offset="14.444444444444446%" stop-color="#7781a1" stop-opacity="1"></stop><stop offset="85.55555555555554%" stop-color="#d5d5d5" stop-opacity="1"></stop></linearGradient></defs><g transform="translate(1920, 1080)"><path d="M-972 0C-974.5 -77.5 -976.9 -155 -927.2 -211.6C-877.4 -268.2 -775.4 -304 -714.5 -344.1C-653.5 -384.2 -633.6 -428.6 -627.8 -500.7C-622 -572.7 -630.2 -672.4 -600.4 -752.9C-570.6 -833.4 -502.9 -894.6 -421.7 -875.7C-340.6 -856.8 -246.1 -757.8 -173.6 -760.4C-101 -763.1 -50.5 -867.6 0 -972L0 0Z" fill="#a6aabb"></path><path d="M-648 0C-649.6 -51.7 -651.3 -103.3 -618.1 -141.1C-584.9 -178.8 -516.9 -202.7 -476.3 -229.4C-435.7 -256.1 -422.4 -285.7 -418.5 -333.8C-414.7 -381.8 -420.1 -448.3 -400.3 -501.9C-380.4 -555.6 -335.3 -596.4 -281.2 -583.8C-227.1 -571.2 -164.1 -505.2 -115.7 -507C-67.4 -508.8 -33.7 -578.4 0 -648L0 0Z" fill="#475a87"></path><path d="M-324 0C-324.8 -25.8 -325.6 -51.7 -309.1 -70.5C-292.5 -89.4 -258.5 -101.3 -238.2 -114.7C-217.8 -128.1 -211.2 -142.9 -209.3 -166.9C-207.3 -190.9 -210.1 -224.1 -200.1 -251C-190.2 -277.8 -167.6 -298.2 -140.6 -291.9C-113.5 -285.6 -82 -252.6 -57.9 -253.5C-33.7 -254.4 -16.8 -289.2 0 -324L0 0Z" fill="#00376e"></path></g><g transform="translate(0, 0)"><path d="M972 0C937.9 66.5 903.8 132.9 888.2 202.7C872.5 272.5 875.4 345.7 855 411.8C834.7 477.8 791.2 536.8 749 597.3C706.8 657.8 666 720 606 759.9C546 799.9 466.8 817.7 393.1 816.3C319.4 814.9 251.1 794.2 186.5 817C121.9 839.7 60.9 905.9 0 972L0 0Z" fill="#a6aabb"></path><path d="M648 0C625.3 44.3 602.5 88.6 592.1 135.1C581.7 181.7 583.6 230.5 570 274.5C556.5 318.5 527.4 357.8 499.3 398.2C471.2 438.6 444 480 404 506.6C364 533.3 311.2 545.1 262.1 544.2C212.9 543.2 167.4 529.5 124.3 544.7C81.2 559.8 40.6 603.9 0 648L0 0Z" fill="#475a87"></path><path d="M324 0C312.6 22.2 301.3 44.3 296.1 67.6C290.8 90.8 291.8 115.2 285 137.3C278.2 159.3 263.7 178.9 249.7 199.1C235.6 219.3 222 240 202 253.3C182 266.6 155.6 272.6 131 272.1C106.5 271.6 83.7 264.7 62.2 272.3C40.6 279.9 20.3 302 0 324L0 0Z" fill="#00376e"></path></g></svg>