<svg id="visual" viewBox="0 0 1920 1080" width="1920" height="1080" xmlns="http://www.w3.org/2000/svg" xmlns:xlink="http://www.w3.org/1999/xlink" version="1.1"><rect x="0" y="0" width="1920" height="1080" fill="#d5d5d5"></rect><defs><linearGradient id="grad1_0" x1="43.8%" y1="0%" x2="100%" y2="100%"><stop offset="14.444444444444446%" stop-color="#00376e" stop-opacity="1"></stop><stop offset="85.55555555555554%" stop-color="#00376e" stop-opacity="1"></stop></linearGradient></defs><defs><linearGradient id="grad1_1" x1="43.8%" y1="0%" x2="100%" y2="100%"><stop offset="14.444444444444446%" stop-color="#00376e" stop-opacity="1"></stop><stop offset="85.55555555555554%" stop-color="#7781a1" stop-opacity="1"></stop></linearGradient></defs><defs><linearGradient id="grad1_2" x1="43.8%" y1="0%" x2="100%" y2="100%"><stop offset="14.444444444444446%" stop-color="#d5d5d5" stop-opacity="1"></stop><stop offset="85.55555555555554%" stop-color="#7781a1" stop-opacity="1"></stop></linearGradient></defs><defs><linearGradient id="grad2_0" x1="0%" y1="0%" x2="56.3%" y2="100%"><stop offset="14.444444444444446%" stop-color="#00376e" stop-opacity="1"></stop><stop offset="85.55555555555554%" stop-color="#00376e" stop-opacity="1"></stop></linearGradient></defs><defs><linearGradient id="grad2_1" x1="0%" y1="0%" x2="56.3%" y2="100%"><stop offset="14.444444444444446%" stop-color="#7781a1" stop-opacity="1"></stop><stop offset="85.55555555555554%" stop-color="#00376e" stop-opacity="1"></stop></linearGradient></defs><defs><linearGradient id="grad2_2" x1="0%" y1="0%" x2="56.3%" y2="100%"><stop offset="14.444444444444446%" stop-color="#7781a1" stop-opacity="1"></stop><stop offset="85.55555555555554%" stop-color="#d5d5d5" stop-opacity="1"></stop></linearGradient></defs><g transform="translate(1920, 0)"><path d="M0 972C-77.5 974.5 -155 976.9 -211.6 927.2C-268.2 877.4 -304 775.4 -344.1 714.5C-384.2 653.5 -428.6 633.6 -500.7 627.8C-572.7 622 -672.4 630.2 -752.9 600.4C-833.4 570.6 -894.6 502.9 -875.7 421.7C-856.8 340.6 -757.8 246.1 -760.4 173.6C-763.1 101 -867.6 50.5 -972 0L0 0Z" fill="#a6aabb"></path><path d="M0 648C-51.7 649.6 -103.3 651.3 -141.1 618.1C-178.8 584.9 -202.7 516.9 -229.4 476.3C-256.1 435.7 -285.7 422.4 -333.8 418.5C-381.8 414.7 -448.3 420.1 -501.9 400.3C-555.6 380.4 -596.4 335.3 -583.8 281.2C-571.2 227.1 -505.2 164.1 -507 115.7C-508.8 67.4 -578.4 33.7 -648 0L0 0Z" fill="#475a87"></path><path d="M0 324C-25.8 324.8 -51.7 325.6 -70.5 309.1C-89.4 292.5 -101.3 258.5 -114.7 238.2C-128.1 217.8 -142.9 211.2 -166.9 209.3C-190.9 207.3 -224.1 210.1 -251 200.1C-277.8 190.2 -298.2 167.6 -291.9 140.6C-285.6 113.5 -252.6 82 -253.5 57.9C-254.4 33.7 -289.2 16.8 -324 0L0 0Z" fill="#00376e"></path></g><g transform="translate(0, 1080)"><path d="M0 -972C66.5 -937.9 132.9 -903.8 202.7 -888.2C272.5 -872.5 345.7 -875.4 411.8 -855C477.8 -834.7 536.8 -791.2 597.3 -749C657.8 -706.8 720 -666 759.9 -606C799.9 -546 817.7 -466.8 816.3 -393.1C814.9 -319.4 794.2 -251.1 817 -186.5C839.7 -121.9 905.9 -60.9 972 0L0 0Z" fill="#a6aabb"></path><path d="M0 -648C44.3 -625.3 88.6 -602.5 135.1 -592.1C181.7 -581.7 230.5 -583.6 274.5 -570C318.5 -556.5 357.8 -527.4 398.2 -499.3C438.6 -471.2 480 -444 506.6 -404C533.3 -364 545.1 -311.2 544.2 -262.1C543.2 -212.9 529.5 -167.4 544.7 -124.3C559.8 -81.2 603.9 -40.6 648 0L0 0Z" fill="#475a87"></path><path d="M0 -324C22.2 -312.6 44.3 -301.3 67.6 -296.1C90.8 -290.8 115.2 -291.8 137.3 -285C159.3 -278.2 178.9 -263.7 199.1 -249.7C219.3 -235.6 240 -222 253.3 -202C266.6 -182 272.6 -155.6 272.1 -131C271.6 -106.5 264.7 -83.7 272.3 -62.2C279.9 -40.6 302 -20.3 324 0L0 0Z" fill="#00376e"></path></g></svg>