<svg xmlns="http://www.w3.org/2000/svg" xmlns:xlink="http://www.w3.org/1999/xlink" width="116" zoomAndPan="magnify" viewBox="0 0 87 56.249996" height="75" preserveAspectRatio="xMidYMid meet" version="1.0"><defs><g/></defs><g fill="#ffffff" fill-opacity="1"><g transform="translate(-0.136448, 52.344925)"><g><path d="M 28.25 -49.558594 L 20.816406 -49.558594 L 1.34375 -0.0703125 L 46.445312 -0.0703125 Z M 9.488281 -5.097656 L 24.496094 -44.535156 L 30.796875 -26.410156 L 21.382812 -5.097656 Z M 28.25 -5.097656 L 33.984375 -18.265625 L 38.941406 -5.097656 Z M 28.25 -5.097656 "/></g></g></g><g fill="#ffffff" fill-opacity="1"><g transform="translate(40.91733, 52.344925)"><g><path d="M 40.496094 -22.019531 C 38.585938 -23.929688 36.039062 -25.84375 33.558594 -26.410156 C 37.808594 -29.167969 40.496094 -32.496094 40.496094 -37.097656 C 40.496094 -42.269531 37.171875 -46.234375 32.921875 -48.425781 C 30.375 -49.066406 27.964844 -49.632812 23.503906 -49.632812 L 5.238281 -49.632812 L 5.238281 0 L 24.070312 0 C 27.257812 0 29.734375 0 32.285156 -0.636719 C 38.726562 -2.832031 42.976562 -8 42.976562 -14.515625 C 42.976562 -17.558594 41.703125 -20.105469 40.496094 -22.019531 Z M 11.46875 -28.886719 L 11.46875 -43.96875 L 23.503906 -43.96875 L 17.839844 -28.886719 Z M 24.710938 -28.886719 L 29.734375 -42.761719 C 37.523438 -40.496094 32.921875 -27.46875 24.710938 -28.886719 Z M 15.929688 -23.222656 L 11.46875 -11.894531 L 11.46875 -23.222656 Z M 24.070312 -5.664062 L 15.929688 -5.664062 L 22.230469 -23.222656 C 26.550781 -23.222656 28.460938 -22.65625 30.375 -22.019531 C 33.84375 -20.886719 36.039062 -17.839844 36.039062 -14.515625 C 36.039062 -7.929688 29.523438 -5.664062 24.070312 -5.664062 Z M 24.070312 -5.664062 "/></g></g></g></svg>